HIERARCHY
ROOT Hips
{
  OFFSET 40.9192 92.6879 18.85
  CHANNELS 6 Xposition Yposition Zposition Zrotation Xrotation Yrotation
  JOINT LeftUpLeg
  {
    OFFSET 8.64259 1.95398 -2.38835
    CHANNELS 3 Zrotation Xrotation Yrotation
    JOINT LeftLeg
    {
      OFFSET 43.7702 0 0
      CHANNELS 3 Zrotation Xrotation Yrotation
      JOINT LeftFoot
      {
        OFFSET 40.6238 0 0
        CHANNELS 3 Zrotation Xrotation Yrotation
        JOINT LeftToeBase
        {
          OFFSET 12.7242 0 0
          CHANNELS 3 Zrotation Xrotation Yrotation
          End Site
          {
            OFFSET 0 0 0
          }
        }
      }
    }
  }
  JOINT RightUpLeg
  {
    OFFSET -8.2249 1.95398 -2.59336
    CHANNELS 3 Zrotation Xrotation Yrotation
    JOINT RightLeg
    {
      OFFSET 43.5653 0 0
      CHANNELS 3 Zrotation Xrotation Yrotation
      JOINT RightFoot
      {
        OFFSET 40.6238 0 0
        CHANNELS 3 Zrotation Xrotation Yrotation
        JOINT RightToeBase
        {
          OFFSET 12.7242 0 0
          CHANNELS 3 Zrotation Xrotation Yrotation
          End Site
          {
            OFFSET 0 0 0
          }
        }
      }
    }
  }
  JOINT Spine
  {
    OFFSET 0.165834 0.87714 6.61349
    CHANNELS 3 Zrotation Xrotation Yrotation
    JOINT Spine1
    {
      OFFSET 7.38963 1.71661e-005 0
      CHANNELS 3 Zrotation Xrotation Yrotation
      JOINT Spine2
      {
        OFFSET 11.9445 1.14441e-005 0
        CHANNELS 3 Zrotation Xrotation Yrotation
        JOINT Spine3
        {
          OFFSET 14.7254 4.19617e-005 0
          CHANNELS 3 Zrotation Xrotation Yrotation
          JOINT Spine4
          {
            OFFSET 10.9679 0 0
            CHANNELS 3 Zrotation Xrotation Yrotation
            JOINT RightShoulder
            {
              OFFSET 2.46616 -1.6653 3.69651
              CHANNELS 3 Zrotation Xrotation Yrotation
              JOINT RightArm
              {
                OFFSET 13.0012 0 0
                CHANNELS 3 Zrotation Xrotation Yrotation
                JOINT RightForeArm
                {
                  OFFSET 28.7848 1.52588e-005 0
                  CHANNELS 3 Zrotation Xrotation Yrotation
                  JOINT RightHand
                  {
                    OFFSET 26.5688 1.52588e-005 0
                    CHANNELS 3 Zrotation Xrotation Yrotation
                    End Site
                    {
                      OFFSET 0 0 0
                    }
                  }
                }
              }
            }
            JOINT LeftShoulder
            {
              OFFSET 2.38034 -1.29275 -3.7523
              CHANNELS 3 Zrotation Xrotation Yrotation
              JOINT LeftArm
              {
                OFFSET 16.3182 6.10351e-005 0
                CHANNELS 3 Zrotation Xrotation Yrotation
                JOINT LeftForeArm
                {
                  OFFSET 27.0901 0 0
                  CHANNELS 3 Zrotation Xrotation Yrotation
                  JOINT LeftHand
                  {
                    OFFSET 24.5451 1.52588e-005 0
                    CHANNELS 3 Zrotation Xrotation Yrotation
                    End Site
                    {
                      OFFSET 0 0 0
                    }
                  }
                }
              }
            }
            JOINT Neck
            {
              OFFSET 5.0226 -0.0266342 0
              CHANNELS 3 Zrotation Xrotation Yrotation
              JOINT Head
              {
                OFFSET 6.69363 2.86102e-005 0
                CHANNELS 3 Zrotation Xrotation Yrotation
                End Site
                {
                  OFFSET 0 0 0
                }
              }
            }
          }
        }
      }
    }
  }
}
MOTION
Frames:	9
Frame Time:	0.0416667
-272.568 71.0036 -270.15 116.188 -60.6151 113.014 -170.967 -10.2298 95.0875 -98.7669 -13.847 -15.2156 -177.977 -13.1216 -38.9313 2.09117 -22.3541 1.20596 -168.883 55.4173 99.8801 -91.0147 -17.2337 -2.03442 80.6729 -11.9772 -5.31195 46.0678 46.7125 151.409 2.14324 9.73923 -88.8007 7.34653 4.79788 2.13787 -4.31697 4.8873 1.92424 -26.8896 3.93368 3.48203 -6.87697 3.93368 3.48202 116.618 -68.3969 -63.8229 15.229 -31.1104 33.8521 -80.0836 55.078 -78.0771 -13.6789 7.88126 -62.1145 -95.9064 -50.6333 70.1669 -19.605 15.1065 14.4142 10.5802 -3.01484 -86.3473 32.6679 1.10612 -0.580582 18.908 -2.07649 -13.6605 -5.78935 1.70853 8.1904 
-272.525 71.7348 -269.422 113.199 -60.0948 107.876 -171.092 -10.61 89.0735 -94.259 -18.5896 -11.2594 -179.505 -4.11119 -34.8979 0.375468 -22.2466 -1.93575 -166.576 54.2646 95.8992 -92.6837 -17.1628 -2.37819 83.1307 -12.8337 -5.33206 43.4858 39.94 154.192 1.18634 10.3977 -88.5854 6.03542 2.96564 2.69344 -5.63461 3.08126 2.56032 -28.1624 2.01956 3.45971 -8.14976 2.01954 3.4597 92.6941 -49.6394 -96.6005 38.4673 -21.9459 39.1764 -125.542 34.0105 -46.8285 -19.8469 7.73824 -49.9779 -93.8876 -44.2494 71.2676 -24.0657 4.72194 3.92667 10.9076 -3.51224 -93.5377 28.4609 0.886769 -0.846239 16.2275 1.72809 -8.40236 2.05091 4.15637 5.81459 
-271.489 74.056 -268.45 105.864 -58.4764 102.393 -170.517 -12.6113 87.6825 -81.574 -13.0998 -7.287 176.176 13.6903 -31.8514 -1.72979 -21.1887 -7.41742 -167.837 52.0253 94.9558 -92.0818 -17.2825 -1.89907 86.1228 -13.5084 -5.37979 37.8052 12.7882 161.798 0.800956 9.91321 -88.8505 7.02476 2.09302 2.17874 -4.6461 2.18685 2.08453 -27.1737 1.34171 2.70678 -7.16106 1.34169 2.70677 93.3336 -50.6824 -95.5809 38.1901 -22.9441 44.4246 -126.571 22.2396 -59.1698 -34.2949 10.7294 -33.8258 -92.645 -44.1854 73.1989 -25.0839 5.9142 1.8575 16.1682 -5.26961 -99.1094 32.6952 1.61005 1.00883 15.648 1.96731 -8.31309 0.397592 4.28626 6.66309 
-269.8 78.5447 -266.597 94.9968 -54.5202 94.0197 -170.101 -15.7516 90.3123 -61.7237 5.53631 -6.19201 163.805 36.5357 -26.4503 -0.591452 -17.6256 -13.2213 -171.62 50.2634 94.4165 -86.765 -16.0436 -1.41928 82.8448 -12.492 -6.08519 -116.936 -76.7585 25.3416 0.139198 9.20419 -89.0742 8.4551 0.686615 1.7852 -3.21684 0.764487 1.75326 -25.7421 0.118465 1.90896 -5.72947 0.118449 1.90896 92.4792 -50.9902 -96.8303 39.1712 -21.1586 49.1084 -140.599 -1.98675 -77.9227 -51.5831 4.79791 -5.05212 -92.2321 -43.0618 73.531 -26.6345 4.38618 3.60118 17.9542 -7.81335 -106.279 32.2883 1.69443 1.34513 13.6286 2.63319 -8.84857 0.877731 5.00856 7.95022 
-267.486 84.1929 -263.825 83.4216 -47.6733 85.2153 -170.001 -17.6526 92.4167 -40.8575 21.3727 -4.70492 126.419 46.5983 -0.931903 11.6786 -8.51352 -16.7444 -176.905 51.7583 93.7857 -76.0123 -11.3856 -0.424269 72.5372 -9.70044 -5.6564 31.6316 0.604393 -11.7147 -0.724409 8.39629 -89.3671 10.0868 -1.1553 1.35277 -1.58441 -1.09465 1.40228 -24.1206 -1.50842 0.943026 -4.1079 -1.50842 0.94301 92.5114 -49.9593 -96.9725 40.0777 -19.4073 50.7519 -154.762 -7.44364 -99.3715 -65.1804 -3.97515 14.7224 -91.9435 -42.9953 73.9759 -27.1861 4.92342 4.74269 18.555 -10.1305 -111.705 32.2167 1.64374 1.196 13.5049 3.32042 -8.26793 0.581937 5.53921 8.42012 
-264.48 88.7019 -260.841 77.0614 -40.5915 81.701 -170.718 -11.2927 93.3462 -41.5974 23.0059 -0.773336 87.0873 24.2512 15.3388 46.7139 11.0809 -21.5347 177.987 52.1334 93.4816 -58.9719 -5.40409 1.33265 66.3352 -7.84309 -4.86701 43.4962 0.188534 -8.05813 -1.44026 7.83108 -89.7648 11.2212 -2.75713 0.735915 -0.44706 -2.72209 0.856633 -23.0059 -2.85071 -0.127407 -2.99326 -2.85073 -0.127424 93.2936 -48.3781 -96.043 40.6527 -17.9866 50.0734 -158.69 -9.46014 -104.917 -74.0773 -5.56063 15.9408 -92.579 -43.4588 73.0925 -26.6074 5.86716 6.11081 19.1946 -11.7677 -114.011 30.6235 1.67693 1.59337 14.2794 3.71756 -6.22712 0.0480454 5.42101 7.54035 
-260.998 90.386 -257.318 77.1135 -39.4926 80.4265 -171.244 -5.2217 92.9828 -48.7116 17.9944 -0.45571 58.0277 -5.50287 5.1445 89.5583 23.5984 -40.7781 177.263 49.3156 92.1336 -48.8117 -0.27847 1.28509 61.9377 -4.83967 -3.08558 46.0212 0.142234 -8.29444 -1.56073 7.73808 -89.7128 11.4132 -2.97144 0.872061 -0.254717 -2.93019 1.00208 -22.8173 -3.09605 -0.0621476 -2.80461 -3.09604 -0.0621437 93.5426 -48.5722 -95.6176 39.8204 -16.478 48.0923 -154.221 -11.388 -103.612 -86.172 -0.227404 7.77843 -92.5873 -42.879 72.9074 -27.6622 8.66216 8.11405 16.1125 -10.266 -112.599 33.5734 1.45633 0.409343 13.2904 3.82803 -4.68802 0.208715 5.09465 6.51995 
-257.679 90.7711 -253.595 80.0695 -40.3922 79.5038 -171.497 -3.88584 92.286 -52.4882 15.1919 -1.10017 42.8108 -13.5154 -2.80572 106.932 23.3192 -51.2405 177.336 44.1721 90.2927 -45.273 1.43169 0.176392 58.974 -2.30188 -1.43952 43.5101 0.142014 -9.7699 -1.40834 7.84346 -89.4707 11.203 -2.55674 1.30539 -0.466165 -2.49681 1.41669 -23.0207 -2.8308 0.476113 -3.00806 -2.83079 0.476119 94.1461 -49.82 -94.4711 37.3264 -15.513 44.5838 -154.525 -11.8603 -105.329 -85.8723 0.487568 6.3909 -94.0413 -43.2362 70.6955 -28.4921 10.7054 10.6338 15.3093 -8.00623 -107.444 40.753 1.93633 0.767305 10.3399 3.33731 -3.72051 1.89856 4.44533 7.13176 
-253.102 90.7726 -249.055 80.1644 -44.8856 81.0269 -168.276 1.70501 92.9156 -62.9979 13.0343 -1.98179 40.0276 -13.1136 -4.12229 110.75 24.3987 -51.4268 177.686 37.8995 93.8545 -43.1816 -0.265016 -0.327152 63.8175 -3.28422 -1.93165 34.4632 0.353014 -4.69554 -0.74443 7.92357 -89.7301 11.031 -1.35676 0.667206 -0.639411 -1.3261 0.72628 -23.18 -1.49456 0.228521 -3.16734 -1.49455 0.228519 94.345 -49.5315 -94.2067 35.2792 -14.9307 38.756 -144.63 -15.1701 -103.921 -97.2927 10.2663 -3.10731 -94.5337 -44.0312 70.1725 -30.0768 12.3005 12.5873 11.4566 -5.8688 -100.409 36.5942 0.509502 -2.67401 9.30875 3.44705 -1.74008 2.96623 4.15325 6.37482 
